<?xml version="1.0" encoding="utf-8"?>
<!-- Generator: Adobe Illustrator 16.0.0, SVG Export Plug-In . SVG Version: 6.00 Build 0)  -->
<!DOCTYPE svg PUBLIC "-//W3C//DTD SVG 1.1//EN" "http://www.w3.org/Graphics/SVG/1.1/DTD/svg11.dtd">
<svg version="1.1" id="Layer_1" xmlns="http://www.w3.org/2000/svg" xmlns:xlink="http://www.w3.org/1999/xlink" x="0px" y="0px"
	 width="242.613px" height="87.594px" viewBox="0 11.875 242.613 87.594" enable-background="new 0 11.875 242.613 87.594"
	 xml:space="preserve">
<g id="_627368800">
	<path d="M118.081,53.59v7.333h-2.961V42.842h6.242c2.049,0,3.628,0.503,4.736,1.522c1.109,1.014,1.669,2.301,1.669,3.863
		c0,1.215-0.37,2.307-1.109,3.28c-0.739,0.969-1.87,1.602-3.397,1.898l4.792,7.519h-3.617l-4.529-7.333H118.081z M118.081,45.159
		v6.113h3.281c1.131,0,1.971-0.269,2.525-0.806c0.554-0.538,0.834-1.288,0.834-2.251s-0.28-1.713-0.834-2.25
		s-1.394-0.806-2.525-0.806H118.081z M137.603,61.16c-2.083,0-3.773-0.678-5.078-2.027c-1.298-1.355-1.948-3.152-1.948-5.391
		c0-2.234,0.655-4.026,1.976-5.37c1.316-1.349,3.024-2.021,5.111-2.021c2.094,0,3.784,0.649,5.089,1.943
		c1.3,1.288,1.948,2.978,1.948,5.061c0,0.503-0.033,0.968-0.101,1.404h-10.984c0.073,1.199,0.476,2.145,1.215,2.85
		c0.734,0.7,1.657,1.053,2.771,1.053c1.613,0,2.75-0.667,3.404-2.005h3.202c-0.431,1.322-1.22,2.396-2.368,3.242
		C140.699,60.739,139.283,61.16,137.603,61.16z M141.606,52.728c-0.017-1.181-0.403-2.122-1.171-2.822
		c-0.76-0.705-1.69-1.052-2.782-1.052c-1.091,0-2.01,0.348-2.748,1.052c-0.733,0.701-1.154,1.641-1.26,2.822H141.606z
		 M150.586,46.586v2.268c0.952-1.667,2.48-2.502,4.58-2.502c1.612,0,2.945,0.538,3.997,1.618c1.047,1.075,1.78,2.537,1.853,4.462
		l0.028,8.224l-1.629,1.086l-1.926-1.086l0.465-4.014c0.034-0.856,0.162-5.475-1.119-6.684c-0.684-0.644-1.524-1.025-2.632-1.025
		c-1.108,0-1.993,0.342-2.643,1.025c-0.65,0.683-0.974,1.668-0.974,2.956v8.011h-2.967V46.586H150.586z M171.457,49.005h-3.488
		v7.938c0,0.538,0.124,0.924,0.375,1.159c0.252,0.236,0.683,0.353,1.288,0.353h1.825v2.469h-2.346c-2.754,0-4.137-1.327-4.137-3.98
		v-7.938h-1.691v-2.419h1.691V43.02h2.995v3.566h3.488V49.005z M201.044,42.842v18.082h-2.967V48.541l-5.52,12.383h-2.054
		l-5.543-12.383v12.383h-2.967V42.842h3.203l6.349,14.18l6.326-14.18H201.044z M208.899,60.688l-5.643-14.103h3.303l4.037,10.929
		l4.188-10.929h3.068l-8.403,19.97l-1.813,0.615l-1.775-0.615L208.899,60.688z"/>
	<g>
		<defs>
			<path id="SVGID_1_" d="M118.081,53.59v7.333h-2.961V42.842h6.242c2.049,0,3.628,0.503,4.736,1.522
				c1.109,1.014,1.669,2.301,1.669,3.863c0,1.215-0.37,2.307-1.109,3.28c-0.739,0.969-1.87,1.602-3.397,1.898l4.792,7.519h-3.617
				l-4.529-7.333H118.081z M118.081,45.159v6.113h3.281c1.131,0,1.971-0.269,2.525-0.806c0.554-0.538,0.834-1.288,0.834-2.251
				s-0.28-1.713-0.834-2.25s-1.394-0.806-2.525-0.806H118.081z M137.603,61.16c-2.083,0-3.773-0.678-5.078-2.027
				c-1.298-1.355-1.948-3.152-1.948-5.391c0-2.234,0.655-4.026,1.976-5.37c1.316-1.349,3.024-2.021,5.111-2.021
				c2.094,0,3.784,0.649,5.089,1.943c1.3,1.288,1.948,2.978,1.948,5.061c0,0.503-0.033,0.968-0.101,1.404h-10.984
				c0.073,1.199,0.476,2.145,1.215,2.85c0.734,0.7,1.657,1.053,2.771,1.053c1.613,0,2.75-0.667,3.404-2.005h3.202
				c-0.431,1.322-1.22,2.396-2.368,3.242C140.699,60.739,139.283,61.16,137.603,61.16z M141.606,52.728
				c-0.017-1.181-0.403-2.122-1.171-2.822c-0.76-0.705-1.69-1.052-2.782-1.052c-1.091,0-2.01,0.348-2.748,1.052
				c-0.733,0.701-1.154,1.641-1.26,2.822H141.606z M150.586,46.586v2.268c0.952-1.667,2.48-2.502,4.58-2.502
				c1.612,0,2.945,0.538,3.997,1.618c1.047,1.075,1.78,2.537,1.853,4.462l0.028,8.224l-1.629,1.086l-1.926-1.086l0.465-4.014
				c0.034-0.856,0.162-5.475-1.119-6.684c-0.684-0.644-1.524-1.025-2.632-1.025c-1.108,0-1.993,0.342-2.643,1.025
				c-0.65,0.683-0.974,1.668-0.974,2.956v8.011h-2.967V46.586H150.586z M171.457,49.005h-3.488v7.938
				c0,0.538,0.124,0.924,0.375,1.159c0.252,0.236,0.683,0.353,1.288,0.353h1.825v2.469h-2.346c-2.754,0-4.137-1.327-4.137-3.98
				v-7.938h-1.691v-2.419h1.691V43.02h2.995v3.566h3.488V49.005z M201.044,42.842v18.082h-2.967V48.541l-5.52,12.383h-2.054
				l-5.543-12.383v12.383h-2.967V42.842h3.203l6.349,14.18l6.326-14.18H201.044z M208.899,60.688l-5.643-14.103h3.303l4.037,10.929
				l4.188-10.929h3.068l-8.403,19.97l-1.813,0.615l-1.775-0.615L208.899,60.688z"/>
		</defs>
		<clipPath id="SVGID_2_">
			<use xlink:href="#SVGID_1_"  overflow="visible"/>
		</clipPath>
		<g clip-path="url(#SVGID_2_)">
			<g>
				<rect x="111.353" y="38.755" fill="#F67104" width="62.428" height="24.034"/>
				<rect x="179.328" y="41.302" fill="#007EFF" width="39.895" height="22.035"/>
				<rect x="191.325" y="60.924" fill="#007EFF" width="19.297" height="26.195"/>
				<rect x="155.96" y="59.966" fill="#F67104" width="16.526" height="25.12"/>
				<rect x="95.705" y="61.719" fill="#44961C" width="59.259" height="23.201"/>
				<rect x="172.61" y="64.099" fill="#44961C" width="18.363" height="28.54"/>
				<rect x="213.842" y="59.339" fill="#44961C" width="31.049" height="26.207"/>
			</g>
		</g>
	</g>
	<path fill="none" d="M118.081,53.59v7.333h-2.961V42.842h6.242c2.049,0,3.628,0.503,4.736,1.522
		c1.109,1.014,1.669,2.301,1.669,3.863c0,1.215-0.37,2.307-1.109,3.28c-0.739,0.969-1.87,1.602-3.397,1.898l4.792,7.519h-3.617
		l-4.529-7.333H118.081z M118.081,45.159v6.113h3.281c1.131,0,1.971-0.269,2.525-0.806c0.554-0.538,0.834-1.288,0.834-2.251
		s-0.28-1.713-0.834-2.25s-1.394-0.806-2.525-0.806H118.081z M137.603,61.16c-2.083,0-3.773-0.678-5.078-2.027
		c-1.298-1.355-1.948-3.152-1.948-5.391c0-2.234,0.655-4.026,1.976-5.37c1.316-1.349,3.024-2.021,5.111-2.021
		c2.094,0,3.784,0.649,5.089,1.943c1.3,1.288,1.948,2.978,1.948,5.061c0,0.503-0.033,0.968-0.101,1.404h-10.984
		c0.073,1.199,0.476,2.145,1.215,2.85c0.734,0.7,1.657,1.053,2.771,1.053c1.613,0,2.75-0.667,3.404-2.005h3.202
		c-0.431,1.322-1.22,2.396-2.368,3.242C140.699,60.739,139.283,61.16,137.603,61.16z M141.606,52.728
		c-0.017-1.181-0.403-2.122-1.171-2.822c-0.76-0.705-1.69-1.052-2.782-1.052c-1.091,0-2.01,0.348-2.748,1.052
		c-0.733,0.701-1.154,1.641-1.26,2.822H141.606z M150.586,46.586v2.268c0.952-1.667,2.48-2.502,4.58-2.502
		c1.612,0,2.945,0.538,3.997,1.618c1.047,1.075,1.78,2.537,1.853,4.462l0.028,8.224l-1.629,1.086l-1.926-1.086l0.465-4.014
		c0.034-0.856,0.162-5.475-1.119-6.684c-0.684-0.644-1.524-1.025-2.632-1.025c-1.108,0-1.993,0.342-2.643,1.025
		c-0.65,0.683-0.974,1.668-0.974,2.956v8.011h-2.967V46.586H150.586z M171.457,49.005h-3.488v7.938c0,0.538,0.124,0.924,0.375,1.159
		c0.252,0.236,0.683,0.353,1.288,0.353h1.825v2.469h-2.346c-2.754,0-4.137-1.327-4.137-3.98v-7.938h-1.691v-2.419h1.691V43.02h2.995
		v3.566h3.488V49.005z M201.044,42.842v18.082h-2.967V48.541l-5.52,12.383h-2.054l-5.543-12.383v12.383h-2.967V42.842h3.203
		l6.349,14.18l6.326-14.18H201.044z M208.899,60.688l-5.643-14.103h3.303l4.037,10.929l4.188-10.929h3.068l-8.403,19.97
		l-1.813,0.615l-1.775-0.615L208.899,60.688z"/>
	<path d="M97.905,62.061h8.274c2.229,0,3.958,0.537,5.185,1.624c1.232,1.081,1.842,2.453,1.842,4.12
		c0,2.436-1.406,4.036-4.215,4.809c1.416,0.23,2.558,0.857,3.42,1.887s1.298,2.217,1.298,3.544c0,1.667-0.648,3.034-1.937,4.109
		c-1.292,1.069-3.017,1.606-5.184,1.606h-8.683V62.061z M101.466,64.837v6.433h4.406c1.164,0,2.072-0.28,2.732-0.839
		c0.655-0.565,0.979-1.349,0.979-2.362c0-1.007-0.325-1.797-0.979-2.374c-0.661-0.571-1.568-0.857-2.732-0.857H101.466z
		 M101.466,80.983h4.809c1.21,0,2.156-0.302,2.844-0.906c0.683-0.605,1.03-1.439,1.03-2.515c0-1.069-0.364-1.925-1.098-2.558
		c-0.728-0.639-1.696-0.952-2.9-0.952h-4.686V80.983z M128.931,79.377c1.031-1.053,1.545-2.463,1.545-4.233
		c0-1.769-0.514-3.175-1.545-4.215c-1.03-1.042-2.256-1.563-3.673-1.563c-1.417,0-2.636,0.51-3.667,1.528
		c-1.03,1.019-1.545,2.418-1.545,4.188s0.515,3.186,1.545,4.261c1.031,1.069,2.25,1.607,3.667,1.607
		C126.675,80.95,127.901,80.423,128.931,79.377z M124.509,84.04c-2.29,0-4.216-0.833-5.772-2.513
		c-1.562-1.674-2.346-3.818-2.346-6.433c0-2.609,0.779-4.736,2.329-6.366c1.551-1.634,3.482-2.452,5.789-2.452
		c1.355,0,2.547,0.302,3.577,0.918c1.03,0.616,1.825,1.422,2.39,2.418v-3.057h3.589V83.76h-3.589v-3.213
		c-0.582,1.058-1.382,1.909-2.407,2.542C127.05,83.727,125.864,84.04,124.509,84.04z M145.996,84.04
		c-2.497,0-4.529-0.811-6.092-2.435c-1.562-1.624-2.34-3.774-2.34-6.444c0-2.676,0.785-4.825,2.357-6.449
		c1.573-1.624,3.6-2.436,6.075-2.436c2.083,0,3.807,0.492,5.167,1.483c1.366,0.985,2.285,2.396,2.766,4.227h-3.84
		c-0.649-1.809-2.01-2.715-4.092-2.715c-1.456,0-2.621,0.515-3.483,1.545c-0.862,1.03-1.292,2.475-1.292,4.328
		s0.431,3.297,1.292,4.339c0.862,1.042,2.027,1.562,3.483,1.562c2.06,0,3.426-0.908,4.092-2.716h3.84
		c-0.498,1.748-1.438,3.136-2.81,4.166C149.741,83.525,148.033,84.04,145.996,84.04z M161.049,83.76h-3.561V60.655h3.561V74.08
		l6.242-7.524h4.932l-7.927,8.616l7.927,8.588h-4.809l-6.365-7.401V83.76z M179.536,83.48l-6.779-16.924h3.969l4.836,13.116
		l5.028-13.116h3.685L179.72,91.849h-3.683L179.536,83.48z M204.313,79.377c1.031-1.053,1.545-2.463,1.545-4.233
		c0-1.769-0.514-3.175-1.545-4.215c-1.03-1.042-2.255-1.563-3.672-1.563s-2.637,0.51-3.667,1.528
		c-1.03,1.019-1.545,2.418-1.545,4.188s0.515,3.186,1.545,4.261c1.03,1.069,2.251,1.607,3.667,1.607S203.283,80.423,204.313,79.377z
		 M199.891,84.04c-2.29,0-4.216-0.833-5.771-2.513c-1.563-1.674-2.346-3.818-2.346-6.433c0-2.609,0.778-4.736,2.329-6.366
		c1.551-1.634,3.481-2.452,5.789-2.452c1.355,0,2.547,0.302,3.577,0.918c1.03,0.616,1.825,1.422,2.39,2.418v-3.057h3.589V83.76
		h-3.589v-3.213c-0.581,1.058-1.383,1.909-2.407,2.542C202.433,83.727,201.246,84.04,199.891,84.04z M217.694,66.556v2.995
		c1.103-2.183,2.821-3.274,5.15-3.274v3.684h-0.907c-1.394,0-2.447,0.354-3.169,1.058c-0.716,0.71-1.074,1.937-1.074,3.689v9.053
		h-3.561V66.556H217.694z M237.473,79.377c1.03-1.053,1.545-2.463,1.545-4.233c0-1.769-0.515-3.175-1.545-4.215
		c-1.03-1.042-2.251-1.563-3.667-1.563c-1.416,0-2.636,0.51-3.667,1.528c-1.03,1.019-1.551,2.418-1.551,4.188
		s0.521,3.186,1.551,4.261c1.03,1.069,2.251,1.607,3.667,1.607C235.222,80.95,236.443,80.423,237.473,79.377z M233.056,84.04
		c-2.29,0-4.215-0.833-5.778-2.513c-1.561-1.674-2.339-3.818-2.339-6.433c0-2.609,0.773-4.736,2.324-6.366
		c1.55-1.634,3.481-2.452,5.794-2.452c1.354,0,2.548,0.302,3.577,0.918c1.031,0.616,1.826,1.422,2.385,2.418v-8.958h3.595V83.76
		h-3.595v-3.213c-0.582,1.058-1.382,1.909-2.401,2.542C235.597,83.727,234.411,84.04,233.056,84.04z"/>
	<g>
		<defs>
			<path id="SVGID_3_" d="M97.905,62.061h8.274c2.229,0,3.958,0.537,5.185,1.624c1.232,1.081,1.842,2.453,1.842,4.12
				c0,2.436-1.406,4.036-4.215,4.809c1.416,0.23,2.558,0.857,3.42,1.887s1.298,2.217,1.298,3.544c0,1.667-0.648,3.034-1.937,4.109
				c-1.292,1.069-3.017,1.606-5.184,1.606h-8.683V62.061z M101.466,64.837v6.433h4.406c1.164,0,2.072-0.28,2.732-0.839
				c0.655-0.565,0.979-1.349,0.979-2.362c0-1.007-0.325-1.797-0.979-2.374c-0.661-0.571-1.568-0.857-2.732-0.857H101.466z
				 M101.466,80.983h4.809c1.21,0,2.156-0.302,2.844-0.906c0.683-0.605,1.03-1.439,1.03-2.515c0-1.069-0.364-1.925-1.098-2.558
				c-0.728-0.639-1.696-0.952-2.9-0.952h-4.686V80.983z M128.931,79.377c1.031-1.053,1.545-2.463,1.545-4.233
				c0-1.769-0.514-3.175-1.545-4.215c-1.03-1.042-2.256-1.563-3.673-1.563c-1.417,0-2.636,0.51-3.667,1.528
				c-1.03,1.019-1.545,2.418-1.545,4.188s0.515,3.186,1.545,4.261c1.031,1.069,2.25,1.607,3.667,1.607
				C126.675,80.95,127.901,80.423,128.931,79.377z M124.509,84.04c-2.29,0-4.216-0.833-5.772-2.513
				c-1.562-1.674-2.346-3.818-2.346-6.433c0-2.609,0.779-4.736,2.329-6.366c1.551-1.634,3.482-2.452,5.789-2.452
				c1.355,0,2.547,0.302,3.577,0.918c1.03,0.616,1.825,1.422,2.39,2.418v-3.057h3.589V83.76h-3.589v-3.213
				c-0.582,1.058-1.382,1.909-2.407,2.542C127.05,83.727,125.864,84.04,124.509,84.04z M145.996,84.04
				c-2.497,0-4.529-0.811-6.092-2.435c-1.562-1.624-2.34-3.774-2.34-6.444c0-2.676,0.785-4.825,2.357-6.449
				c1.573-1.624,3.6-2.436,6.075-2.436c2.083,0,3.807,0.492,5.167,1.483c1.366,0.985,2.285,2.396,2.766,4.227h-3.84
				c-0.649-1.809-2.01-2.715-4.092-2.715c-1.456,0-2.621,0.515-3.483,1.545c-0.862,1.03-1.292,2.475-1.292,4.328
				s0.431,3.297,1.292,4.339c0.862,1.042,2.027,1.562,3.483,1.562c2.06,0,3.426-0.908,4.092-2.716h3.84
				c-0.498,1.748-1.438,3.136-2.81,4.166C149.741,83.525,148.033,84.04,145.996,84.04z M161.049,83.76h-3.561V60.655h3.561V74.08
				l6.242-7.524h4.932l-7.927,8.616l7.927,8.588h-4.809l-6.365-7.401V83.76z M179.536,83.48l-6.779-16.924h3.969l4.836,13.116
				l5.028-13.116h3.685L179.72,91.849h-3.683L179.536,83.48z M204.313,79.377c1.031-1.053,1.545-2.463,1.545-4.233
				c0-1.769-0.514-3.175-1.545-4.215c-1.03-1.042-2.255-1.563-3.672-1.563s-2.637,0.51-3.667,1.528
				c-1.03,1.019-1.545,2.418-1.545,4.188s0.515,3.186,1.545,4.261c1.03,1.069,2.251,1.607,3.667,1.607
				S203.283,80.423,204.313,79.377z M199.891,84.04c-2.29,0-4.216-0.833-5.771-2.513c-1.563-1.674-2.346-3.818-2.346-6.433
				c0-2.609,0.778-4.736,2.329-6.366c1.551-1.634,3.481-2.452,5.789-2.452c1.355,0,2.547,0.302,3.577,0.918
				c1.03,0.616,1.825,1.422,2.39,2.418v-3.057h3.589V83.76h-3.589v-3.213c-0.581,1.058-1.383,1.909-2.407,2.542
				C202.433,83.727,201.246,84.04,199.891,84.04z M217.694,66.556v2.995c1.103-2.183,2.821-3.274,5.15-3.274v3.684h-0.907
				c-1.394,0-2.447,0.354-3.169,1.058c-0.716,0.71-1.074,1.937-1.074,3.689v9.053h-3.561V66.556H217.694z M237.473,79.377
				c1.03-1.053,1.545-2.463,1.545-4.233c0-1.769-0.515-3.175-1.545-4.215c-1.03-1.042-2.251-1.563-3.667-1.563
				c-1.416,0-2.636,0.51-3.667,1.528c-1.03,1.019-1.551,2.418-1.551,4.188s0.521,3.186,1.551,4.261
				c1.03,1.069,2.251,1.607,3.667,1.607C235.222,80.95,236.443,80.423,237.473,79.377z M233.056,84.04
				c-2.29,0-4.215-0.833-5.778-2.513c-1.561-1.674-2.339-3.818-2.339-6.433c0-2.609,0.773-4.736,2.324-6.366
				c1.55-1.634,3.481-2.452,5.794-2.452c1.354,0,2.548,0.302,3.577,0.918c1.031,0.616,1.826,1.422,2.385,2.418v-8.958h3.595V83.76
				h-3.595v-3.213c-0.582,1.058-1.382,1.909-2.401,2.542C235.597,83.727,234.411,84.04,233.056,84.04z"/>
		</defs>
		<clipPath id="SVGID_4_">
			<use xlink:href="#SVGID_3_"  overflow="visible"/>
		</clipPath>
		<g clip-path="url(#SVGID_4_)">
			<g>
				<rect x="111.353" y="38.755" fill="#F67104" width="62.428" height="24.034"/>
				<rect x="179.328" y="41.302" fill="#007EFF" width="39.895" height="22.035"/>
				<rect x="191.325" y="60.924" fill="#007EFF" width="19.297" height="26.195"/>
				<rect x="155.96" y="59.966" fill="#F67104" width="16.526" height="25.12"/>
				<rect x="95.705" y="61.719" fill="#44961C" width="59.259" height="23.201"/>
				<rect x="172.61" y="64.099" fill="#44961C" width="18.363" height="28.54"/>
				<rect x="213.842" y="59.339" fill="#44961C" width="31.049" height="26.207"/>
			</g>
		</g>
	</g>
	<path fill="none" d="M97.905,62.061h8.274c2.229,0,3.958,0.537,5.185,1.624c1.232,1.081,1.842,2.453,1.842,4.12
		c0,2.436-1.406,4.036-4.215,4.809c1.416,0.23,2.558,0.857,3.42,1.887s1.298,2.217,1.298,3.544c0,1.667-0.648,3.034-1.937,4.109
		c-1.292,1.069-3.017,1.606-5.184,1.606h-8.683V62.061z M101.466,64.837v6.433h4.406c1.164,0,2.072-0.28,2.732-0.839
		c0.655-0.565,0.979-1.349,0.979-2.362c0-1.007-0.325-1.797-0.979-2.374c-0.661-0.571-1.568-0.857-2.732-0.857H101.466z
		 M101.466,80.983h4.809c1.21,0,2.156-0.302,2.844-0.906c0.683-0.605,1.03-1.439,1.03-2.515c0-1.069-0.364-1.925-1.098-2.558
		c-0.728-0.639-1.696-0.952-2.9-0.952h-4.686V80.983z M128.931,79.377c1.031-1.053,1.545-2.463,1.545-4.233
		c0-1.769-0.514-3.175-1.545-4.215c-1.03-1.042-2.256-1.563-3.673-1.563c-1.417,0-2.636,0.51-3.667,1.528
		c-1.03,1.019-1.545,2.418-1.545,4.188s0.515,3.186,1.545,4.261c1.031,1.069,2.25,1.607,3.667,1.607
		C126.675,80.95,127.901,80.423,128.931,79.377z M124.509,84.04c-2.29,0-4.216-0.833-5.772-2.513
		c-1.562-1.674-2.346-3.818-2.346-6.433c0-2.609,0.779-4.736,2.329-6.366c1.551-1.634,3.482-2.452,5.789-2.452
		c1.355,0,2.547,0.302,3.577,0.918c1.03,0.616,1.825,1.422,2.39,2.418v-3.057h3.589V83.76h-3.589v-3.213
		c-0.582,1.058-1.382,1.909-2.407,2.542C127.05,83.727,125.864,84.04,124.509,84.04z M145.996,84.04
		c-2.497,0-4.529-0.811-6.092-2.435c-1.562-1.624-2.34-3.774-2.34-6.444c0-2.676,0.785-4.825,2.357-6.449
		c1.573-1.624,3.6-2.436,6.075-2.436c2.083,0,3.807,0.492,5.167,1.483c1.366,0.985,2.285,2.396,2.766,4.227h-3.84
		c-0.649-1.809-2.01-2.715-4.092-2.715c-1.456,0-2.621,0.515-3.483,1.545c-0.862,1.03-1.292,2.475-1.292,4.328
		s0.431,3.297,1.292,4.339c0.862,1.042,2.027,1.562,3.483,1.562c2.06,0,3.426-0.908,4.092-2.716h3.84
		c-0.498,1.748-1.438,3.136-2.81,4.166C149.741,83.525,148.033,84.04,145.996,84.04z M161.049,83.76h-3.561V60.655h3.561V74.08
		l6.242-7.524h4.932l-7.927,8.616l7.927,8.588h-4.809l-6.365-7.401V83.76z M179.536,83.48l-6.779-16.924h3.969l4.836,13.116
		l5.028-13.116h3.685L179.72,91.849h-3.683L179.536,83.48z M204.313,79.377c1.031-1.053,1.545-2.463,1.545-4.233
		c0-1.769-0.514-3.175-1.545-4.215c-1.03-1.042-2.255-1.563-3.672-1.563s-2.637,0.51-3.667,1.528
		c-1.03,1.019-1.545,2.418-1.545,4.188s0.515,3.186,1.545,4.261c1.03,1.069,2.251,1.607,3.667,1.607S203.283,80.423,204.313,79.377z
		 M199.891,84.04c-2.29,0-4.216-0.833-5.771-2.513c-1.563-1.674-2.346-3.818-2.346-6.433c0-2.609,0.778-4.736,2.329-6.366
		c1.551-1.634,3.481-2.452,5.789-2.452c1.355,0,2.547,0.302,3.577,0.918c1.03,0.616,1.825,1.422,2.39,2.418v-3.057h3.589V83.76
		h-3.589v-3.213c-0.581,1.058-1.383,1.909-2.407,2.542C202.433,83.727,201.246,84.04,199.891,84.04z M217.694,66.556v2.995
		c1.103-2.183,2.821-3.274,5.15-3.274v3.684h-0.907c-1.394,0-2.447,0.354-3.169,1.058c-0.716,0.71-1.074,1.937-1.074,3.689v9.053
		h-3.561V66.556H217.694z M237.473,79.377c1.03-1.053,1.545-2.463,1.545-4.233c0-1.769-0.515-3.175-1.545-4.215
		c-1.03-1.042-2.251-1.563-3.667-1.563c-1.416,0-2.636,0.51-3.667,1.528c-1.03,1.019-1.551,2.418-1.551,4.188
		s0.521,3.186,1.551,4.261c1.03,1.069,2.251,1.607,3.667,1.607C235.222,80.95,236.443,80.423,237.473,79.377z M233.056,84.04
		c-2.29,0-4.215-0.833-5.778-2.513c-1.561-1.674-2.339-3.818-2.339-6.433c0-2.609,0.773-4.736,2.324-6.366
		c1.55-1.634,3.481-2.452,5.794-2.452c1.354,0,2.548,0.302,3.577,0.918c1.031,0.616,1.826,1.422,2.385,2.418v-8.958h3.595V83.76
		h-3.595v-3.213c-0.582,1.058-1.382,1.909-2.401,2.542C235.597,83.727,234.411,84.04,233.056,84.04z"/>
</g>
<g id="_623974784">
	<path fill="#007EFF" d="M74.386,99.348v-28.69c-0.21-0.539-1.561-1.657-2.045-2.15c-0.083-0.077-0.52-0.52-0.612-0.424
		c-0.452,0.452-0.849,0.881-1.319,1.324c-0.47,0.438-1.073,0.982-1.155,1.658c-0.05,0.675,0.019,1.429,0.027,2.118
		c0.041,4.971,0,9.938-0.018,14.904c-0.009,2.735,0.045,5.474,0.031,8.203c-0.004,0.553-0.031,1.06-0.009,1.617
		c0.019,0.351-0.091,0.931,0,1.232c0.137,0.333,0.927,0.224,1.224,0.219C71.775,99.321,73.113,99.348,74.386,99.348z"/>
	<path fill="#007EFF" d="M48.571,82.526v16.822h5.036V70.475c0-0.274-0.375-0.475-0.552-0.616c-0.42-0.329-1.406-1.347-1.968-1.721
		l-2.027,1.927c-0.716,0.634-0.579,0.688-0.579,1.849L48.571,82.526z"/>
	<path fill="#007EFF" d="M27.792,76.771v22.308c0,0.206,0.063,0.269,0.269,0.269h4.588v-5.396c0-0.374,0.063-0.146,0.055-0.438
		v-1.465c0.009-0.293-0.055-0.063-0.055-0.438c0-0.32,0.046-0.16,0.05-0.479c0.005-0.238-0.009-0.224-0.026-0.438
		c-0.078-0.841,0.004-2.05,0.026-2.789l-0.022-7.072c0-0.196-0.027-0.493-0.027-0.73l0.027-3.469
		c-0.004-0.146-0.032-0.315-0.027-0.488l0.046-5.072c-0.014-0.575,0.237-0.812-0.366-1.269l-1.228-1.196
		c-0.872-0.804-0.649-0.749-1.397,0c-0.255,0.256-0.479,0.457-0.721,0.721c-1.074,1.174-1.114,0.744-1.105,1.771
		C27.906,73.054,27.792,74.775,27.792,76.771z"/>
	<path fill="#007EFF" d="M38.227,99.348h4.858c0-9.294-0.019-18.588,0-27.882c0-1.077,0-1.319-0.84-2.072
		c-0.407-0.366-0.863-0.79-1.278-1.137c-0.056-0.046-0.102-0.078-0.155-0.119c-0.101-0.055-0.165-0.014-0.279,0.046
		c-0.324,0.188-0.995,0.89-1.315,1.187c-1.2,1.119-0.99,1.109-0.99,2.729c0.009,9.053,0,18.105,0,27.157V99.348z"/>
	<path fill="#44961C" d="M60.062,55.771c0.127,0.89-0.087,0.547-0.476,0.004c-0.36-0.498-0.798-0.936-1.205-1.401
		c-0.215-0.247-0.616-0.552-0.877-0.79c-0.378-0.347-0.542-0.484-0.986-0.762c-1.105-0.689-1.881-1.201-3.104-1.716
		c-1.428-0.603-2.1-1.164-2.497-2.726c-0.315-1.242,0.128-2.054,0.867-3.018c0.566-0.73,0.237-0.625-0.256-0.146
		c-2.725,2.711-0.465,4.551-0.876,4.889c-0.155,0.124-1.174-0.128-1.402-0.174c-0.415-0.082-0.84-0.178-1.242-0.31
		c-0.717-0.27-1.342-0.47-2.027-0.827c-0.392-0.205-0.753-0.314-1.159-0.547c-0.562-0.32-1.063-0.726-1.593-1.095
		c-0.982-0.694-2.159-1.872-2.839-2.857c-0.443-0.681-0.767-1.091-1.114-1.863c-0.255-0.557-0.457-1.155-0.684-1.726
		c-0.005-0.013-0.383-0.899-0.407-0.483c0.005,0.653,0.475,1.612,0.685,2.246c0.105,0.387-0.051,0.324-0.319,0.155
		c-1.457-0.908-2.634-1.26-4.364-1.228c-2.101,0.032-4.25,1.06-5.46,2.794c-0.411,0.589-0.178,0.521,0.196,0.105
		c0.758-0.836,1.014-1.165,2.072-1.699c0.94-0.47,2.209-0.821,3.265-0.721c0.57,0.05-0.704,0.151-0.763,0.16
		c-0.959,0.15-1.844,0.621-2.606,1.196c-0.808,0.612-1.771,1.255-1.753,2.396c0.023,1.055,1.136,1.726,2.022,2.014
		c1.872,0.588,4.14,0.584,5.738-0.68c0.844-0.671,1.027-1.479,0.881-2.506c-0.142-0.927-0.63-1.599-1.416-2.09
		c-0.607-0.371-0.932-0.553,0.073-0.233c1.214,0.388,2.264,1.036,3.146,1.967c0.611,0.667,1.036,1.425,1.643,2.115
		c0.59,0.67,0.064,0.346-0.479,0.209c-1.474-0.366-3.583,0.47-4.533,1.629c-0.662,0.808-0.137,1.36,0.607,1.803
		c1.147,0.68,3.406,0.995,4.603,0.348c0.981-0.53,0.985-1.694,0.684-2.635c-0.201-0.63-0.055-0.484,0.424-0.086
		c0.658,0.543,0.927,0.835,1.698,1.269c0.178,0.101,1.228,0.643,1.164,0.867c-0.068,0.232-1.044,0.21-1.318,0.247
		c-0.453,0.055-3.124,0.456-3.242,0.858c-0.019,0.05,0.096,0.018,0.141,0.018c0.68-0.037,1.388-0.265,2.123-0.31
		c1.361-0.088,3.086-0.073,4.415,0.214c1.603,0.347,3.707,0.75,4.976,1.831c0.685,0.585,0.74,0.324,1.43,0.68
		c0.73,0.378,1.67,1.301,2.323,1.853c0.278,0.233,0.439,0.484,0.685,0.739c0.333,0.348,0.872,1.073,1.146,1.479
		c0.511,0.767,0.995,1.629,1.3,2.505c0.142,0.412,0.087,1.439,0.082,1.914c-0.009,1.785-0.055,3.561-0.146,5.341
		c-0.086,1.762-0.118,3.479-0.264,5.245c-0.105,1.21-0.041,2.402-0.124,3.62c-0.127,1.858-0.155,3.671-0.356,5.528
		c-0.219,2-0.315,4.013-0.525,6.026c-0.178,1.707-0.342,3.396-0.502,5.103c-0.096,1.023-0.26,2.073-0.379,3.104
		c-0.05,0.416-0.127,0.832-0.173,1.232c-0.036,0.334,0.005,0.562-0.059,0.936c-0.06,0.379-0.229,0.986-0.165,1.351
		c0.104,0.421,0.73,0.325,1.059,0.315c2.223-0.018,4.451-0.032,6.674-0.009c0.319,0,1.178,0.151,1.319-0.219
		c0.109-0.273-0.101-1.178-0.142-1.538c-0.114-1.037-0.261-2.014-0.347-3.059c-0.307-3.771-0.607-7.487-0.817-11.262
		c-0.105-1.84-0.238-3.651-0.366-5.483c-0.237-3.437-0.319-6.92-0.484-10.362c-0.087-1.84-0.114-3.616-0.137-5.456
		c-0.014-1.155-0.133-2.1-0.247-3.241c-0.173-1.726,0.027-2.611,0.461-4.277c0.498-1.849,1.333-2.839,2.666-4.164
		c1.251-1.237,2.218-1.534,3.976-1.401c1.324,0.096,2.515,0.534,3.643,1.224c0.712,0.442,1.739,1.588,2.013,2.373
		c0.179,0.507,0.379,1.119,0.416,1.653c0.036,0.535,0.283,0.055,0.305-0.301c0.027-0.415-0.031-1.2-0.196-1.593
		c-0.114-0.278-0.566-1.022-0.552-1.246c0.009-0.082,0.019-0.064,0.146-0.073c0.297-0.014,0.644,0.051,0.991,0.037
		c0.767-0.037,1.351-0.269,1.999-0.667c0.31-0.195,0.575-0.411,0.85-0.657l0.397-0.502c0.525-0.886,0.47-1.178,0.47-2.223
		c0-0.347,0.028-0.037-0.086-0.274c-0.466,0.407,0.014,2.57-2.726,3.387c-0.849,0.247-2.104,0.388-2.884-0.095
		c-0.64-0.402-1.046-0.881-1.781-1.27c-1.05-0.548-1.584-0.603-2.739-0.653c-1.799-0.078,0.1-0.827,0.612-1.045
		c0.703-0.306,1.474-0.603,2.204-0.844c0.114-0.037,0.233-0.073,0.347-0.109c1.338-0.388,2.228-0.658,3.63-0.817
		c1.872-0.21,4.793-0.278,6.605,0.155l3.199,0.853c1.361,0.512,1.986,0.772,3.246,1.516c0.246,0.142,0.315,0.247,0.625,0.274
		c-0.068-0.26-0.022-0.124-0.174-0.274c-0.004,0-0.283-0.228-0.301-0.242c-0.242-0.188-0.411-0.223-0.666-0.41l-1.932-1.123
		c-1.104-0.598-2.857-1.301-4.136-1.534l-0.629-0.183c-0.037-0.01-0.184-0.036-0.223-0.041c-1.242-0.21-2.489-0.452-3.749-0.452
		c-0.835-0.022-0.124-0.246,0.255-0.644c0.479-0.498,1.041-1.191,1.465-1.744c0.963-1.251,1.073-2.241,1.296-3.757
		c0.146-1.177-0.11-1.958-0.073-3.035c0.077-2.127,2.218-3.661,4.155-4.003c1.323-0.233,2.245-0.051,3.477,0.424
		c0.393,0.155,1.237,0.466,0.366-0.15c-0.895-0.64-2.716-0.896-3.799-0.758c-1.574,0.202-3.081,0.941-4.021,2.247
		c-0.132,0.188-0.534,0.876-0.798,0.698c-0.238-0.206-0.739-1.123-1.014-1.484c-0.078-0.101-0.909-1.146-1.087-1
		c-0.123,0.105,0.516,0.899,0.617,1.05c0.84,1.26,1.2,2.534,1.264,4.04c0.014,0.461-0.004,0.899-0.049,1.356
		c-0.097,0.858-0.526,2.082-0.987,2.817c-1.013,1.579-2.104,2.802-3.752,3.743c-0.816,0.47-1.753,0.598-2.657,0.813
		c-1.142,0.278-2.287,0.561-3.405,0.931c-0.94,0.338-2.036,1.06-2.903,1.589c-1.798,1.105-2.707,2-4.1,3.556
		c-0.419,0.466-0.451,0.265-0.396-0.256c0.055-0.547,0.169-0.986,0.191-1.566c0.028-0.693,0.06-1.224,0.155-1.916
		c0.073-0.512,0.165-1.015,0.27-1.521c0.045-0.229,0.292-0.156,0.498-0.493c0.416-0.704-0.26-0.745-0.183-1.43
		c0.045-0.442,0.233-1.003,0.315-1.479c0.137-0.78,0.315-1.498,0.539-2.255c0.292-1.036-0.041-0.913,0.876-1.771
		c0.63-0.593,2.123-1.63,2.99-1.68c0.52-0.031-0.329,0.465-0.429,0.54c-0.288,0.209-0.831,0.798-0.598,1.182
		c0.26,0.424,0.255,0.671,0.698,1.041c1.284,1.069,3.429,0.146,4.762-0.393c0.547-0.224,0.699-0.292,0.191-0.771
		c-0.465-0.438-1.36-0.995-1.94-1.301c-0.552-0.283-1.173-0.625-0.009-0.502c0.662,0.069,1.726,0.333,2.323,0.621
		c0.379,0.196,0.937,0.621,1.297,0.73c-0.443-1.177-3.265-1.931-4.429-2.022c-1.885-0.137-3.013,0.365-4.602,1.273
		c-0.424,0.243-0.355,0.128-0.25-0.279c0.666-2.556,2.017-4.944,3.053-7.367c0.786-1.816,2.018-3.648,3.119-5.305
		c0.2-0.301,1.077-1.52,1.146-1.707c0.164-0.424-0.79,0.535-0.831,0.584c-0.161,0.178-0.986,1.155-1.164,1.15
		c-0.06-0.1,0.292-1.073,0.337-1.246c0.261-1,0.114-2-0.137-2.991c-0.337-1.351-1.196-3.195-2.908-2.529
		c-0.772,0.301-1.402,0.918-1.968,1.516c-0.333,0.352-0.913,1.206-1.113,1.635c-0.329,0.708-0.703,1.931-0.539,2.707
		c0.387,1.817,2.597,2.606,4.263,2.269l0.092-0.018c0.328-0.096,0.639-0.297,0.899-0.36c0.658-0.164-0.379,0.973-0.47,1.086
		c-0.667,0.881-1.205,1.863-1.812,2.79c-0.562,0.854-0.521-0.188-0.644-0.644c-0.804-2.899-2.904-5.067-5.537-6.413
		c-0.562-0.288-1.137-0.539-1.726-0.758l-0.087-0.032c-0.301-0.114-0.474-0.142-0.793-0.159v0.178
		c1.424,0.279,3.538,1.707,4.546,2.744c0.571,0.593,1.26,1.849,1.693,2.597c0.389,0.681,0.662,1.27,0.881,2.022
		c0.128,0.461-0.607-0.547-0.694-0.63c-0.625-0.602-2.562-2.068-3.415-2.022c-0.511,0.136-0.639,1.196-0.726,1.657
		c-0.164,0.863-0.301,1.899,0.046,2.734c0.278,0.635,0.703,1.201,1.36,1.47c0.686,0.265,1.895,0.653,2.547,0.169
		c0.393-0.292,0.621-0.749,0.876-0.936c0.342-0.252-0.013,0.748-0.046,0.84c-0.264,0.849-0.734,1.711-1.063,2.57
		c-0.443,1.146-0.844,2.337-1.269,3.497c-0.312,0.849-0.676,1.735-0.914,2.606c-0.169,0.617-0.343,1.238-0.516,1.854
		c-0.095,0.324-0.127,0.73-0.21,1.082c-0.214,0.909-0.36,1.867-0.575,2.771c-0.032,0.132-0.06,0.237-0.109,0.365
		c-0.292-0.279-0.274-0.776-0.42-1.168c-0.708-1.88-1.511-3.767-2.26-5.633c-0.165-0.402-0.398-0.786-0.548-1.206
		c0.005,0.005-0.343-0.703-0.411-1.154c-0.123-2.602,1.803-4.63,4.333-4.917c0.073-0.005,1.196-0.022,0.84-0.296
		c-0.289-0.214-1.096-0.037-1.438,0.027c-0.621,0.119-1.083,0.315-1.666,0.534c-0.703,0.26-0.156-0.187,0.068-0.452l0.073-0.087
		c0.963-1.26,1.187-2.862,0.123-4.154c-0.397-0.484-0.881-0.763-1.47-0.963c-2.018-0.434-3.98,0.896-4.368,2.898
		c-0.119,0.608-0.014,0.731,0.041,1.288c0.068,0.675-0.716-0.831-0.762-0.908c-0.576-0.908-0.968-0.845-0.361,0.297
		c0.15,0.278,0.89,1.57,0.813,1.816c-0.064,0.087-0.689-0.557-0.781-0.639c-0.57-0.502-1.839-1.068-2.566-1.306
		c-1.218-0.401-1.999-0.178-2.469,1.083c-0.273,0.789,0.137,1.931,0.443,2.674c0.315,0.767,1.055,1.612,1.854,1.881
		c1.123,0.356,2.41-0.068,3.273-0.835c0.625-0.552,0.625-1.402,0.753-1.479c0.215-0.133,0.794,1.977,0.886,2.25
		c0.329,0.968,0.675,1.927,1.008,2.895c0.096,0.283,0.233,0.721,0.37,0.977c0.224,0.383-0.525-0.274-0.557-0.292
		c-0.735-0.583-1.269-1.027-2.114-1.456c-1-0.502-1.821-0.959-2.908-1.282c-0.758-0.229-1.429-0.462-2.214-0.585
		c-1.735-0.374-3.396-1.858-4.15-3.433c-0.717-1.534-0.708-3.146,0.114-4.639c0.251-0.456,0.516-0.912,0.772-1.374
		c0.424-0.763,0.557-0.768,0.616-1.735c0.087-1.442-0.411-2.702-1.356-3.789c-1.597-1.844-2.921-0.233-3.638,1.392
		c-0.629,1.42-0.895,3.479,0.721,4.346c1.616,0.872,2.922-0.11,3.21,0.009c0.132,0.059-0.383,0.625-0.443,0.702
		c-0.685,0.909-1.082,2.584-0.941,3.716c0.101,0.845,0.43,1.571,0.859,2.292c0.118,0.206,0.241,0.384,0.388,0.566
		c0.489,0.594,1.205,1.109,1.807,1.593c0.073,0.056,0.12,0.101,0.174,0.173c-0.671,0.074-1.351,0.115-2.027,0.183
		c0.949,0.132,1.908,0.219,2.854,0.347c0.229,0.032,0.78,0.197,1.041,0.26c0.443,0.11,0.726,0.206,1.15,0.361
		c0.219,0.082,0.361,0.101,0.593,0.114c0.019,0.27,0.042,0.169-0.337,0.114c-1.716-0.223-2.954,0.288-4.533,0.832
		c-1.137,0.396-0.825,0.647-0.073,1.364c0.735,0.703,1.968,1.493,2.909,1.857c1.36,0.53,2.465,0.343,3.57-0.611
		c0.324-0.288,0.813-0.858,0.539-1.315c-0.083-0.132-0.155-0.405-0.25-0.584c-0.119-0.219-0.503-0.749-0.535-0.922
		c0.506,0.114,1.242,0.689,1.711,1.013c1.073,0.74,2.314,1.926,3.086,2.972c0.114,0.155,0.21,0.288,0.223,0.484
		c-0.319,0.032-1.282-0.452-1.679-0.584c-2.493-0.826-4.433-0.37-6.675,0.881c-0.547,0.315-0.83,0.566-1.223,1.055l-0.064,0.082
		c-0.43,0.597,0.425,0.009,0.543-0.078c1.534-1.078,2.908-1.565,4.802-1.47c1.894,0.091,4.255,1.032,5.268,2.711
		c0.43,0.78,0.74,2.584,0.932,3.533c0.091,0.461,0.306,1.479,0.201,1.922c-0.129,0.543-0.571,0.944-0.119,1.547
		c0.302,0.397,0.511,0.237,0.68,0.968c0.183,0.79,0.219,1.958,0.329,2.802C60.039,55.593,60.053,55.679,60.062,55.771z"/>
	<path fill="#44961C" d="M80.148,30.243c0.333,0.215,1.027,0.548,1.419,0.575c0.506,0.033,1.662,0.042,2.118-0.146
		c1.621-0.703,2.013-2.396,1.424-3.953c-0.05-0.142-0.47-1.046-0.393-1.105c0.151-0.119,1.483,1.511,2.967-0.58
		c0.771-1.091,1.283-3.132-0.844-2.657c-0.972,0.214-2.483,0.886-2.634,1.995c-0.055,0.401-0.164,0.397-0.534,0.168
		c-0.612-0.369-1.037-0.616-1.785-0.429c-1.488,0.37-2.597,2.155-2.812,3.588C78.928,28.691,79.33,29.664,80.148,30.243z"/>
	<path fill="#44961C" d="M33.279,40.738c1.296,0.675,3.049,0.251,3.977-0.867c0.41-0.498,0.443-1.091,0.315-1.708
		c-0.351-1.684-3.21-3.821-4.894-3.853c-0.699-0.014-1.104,0.538-1.324,1.141c-0.155,0.42-0.055,1.977,0.05,2.465
		c0.174,0.79,0.557,1.347,0.972,2.022C32.617,40.332,32.882,40.51,33.279,40.738z M31.174,41.898
		c0.475-0.229,0.996-0.744,1.042-1.292c0.096-1.022-0.494-1.707-1.521-1.762c-0.872-0.05-2.041,0.104-2.812,0.53
		c-0.466,0.256-0.583,0.694-0.361,1.183C27.975,41.528,30.198,42.268,31.174,41.898z"/>
	<path fill="#44961C" d="M78.746,26.057c0.872-2.693-1.502-4.83-4.135-3.986c-1.791,0.571-3.282,2.069-3.311,4.032
		c-0.027,2.433,2.534,3.57,4.647,2.739C77.276,28.317,78.262,27.417,78.746,26.057z"/>
	<path fill="#44961C" d="M90.524,33.261c-0.146-0.698-0.689-1.442-1.288-1.831c-1.205-0.794-2.748-0.671-3.962,0.041
		c-1.124,0.658-2.037,1.716-2.306,3.018c-0.073,0.355,0.014,0.748,0.101,1.1c0.356,1.42,1.031,2.269,2.551,2.465
		c1.78,0.232,3.598-0.785,4.479-2.329c0.483-0.844,0.515-1.246,0.452-2.2C90.546,33.434,90.538,33.357,90.524,33.261z"/>
	<path fill="#44961C" d="M65.38,16.256c-0.904-1.745-2.575-2.84-4.583-2.36c-1.164,0.274-1.831,1.164-2.265,2.228
		c-0.547,1.342,0.179,3.013,1.183,3.953c1.123,1.055,2.583,1.374,4.035,0.826c0.634-0.238,1.05-0.607,1.429-1.16
		C65.818,18.772,65.882,17.301,65.38,16.256z"/>
	<path fill="#44961C" d="M55.506,26.391c0.183-1.493-0.424-2.949-1.401-4.059c-0.584-0.667-1.529-1.379-2.466-1.169
		c-0.771,0.169-1.515,0.625-1.994,1.252c-0.84,1.1-1.434,2.898-0.905,4.245c0.53,1.333,1.302,1.88,2.73,2.049
		c1.621,0.192,3.748-0.356,4.022-2.223L55.506,26.391z"/>
	<path fill="#44961C" d="M84.128,55.301c0.261-1.037-0.265-2.255-0.903-3.067c-0.927-1.188-2.498-1.745-3.972-1.397
		c-1.392,0.328-2.173,1.629-2.031,3.021c0.215,2.142,2.296,3.83,4.446,3.52C82.837,57.204,83.777,56.438,84.128,55.301z"/>
	<path fill="#44961C" d="M49.43,14.17c-0.097-0.155-0.53,0.155-0.649,0.229c-1.205,0.757-3.355,2.569-3.756,3.957
		c-0.457,1.666,0.337,3.369,2.04,3.831c1.712,0.465,3.689-0.904,3.963-2.662C51.297,17.781,50.311,15.64,49.43,14.17z"/>
	<path fill="#44961C" d="M70.497,29.536c-1.762,0.576-3.305,1.589-3.004,3.689c0.183,1.273,1.337,1.598,2.442,1.776
		c2.707,0.337,4.314-1.749,5.373-3.944c0.196-0.397,0.347-0.817,0.562-1.205c0.342-0.625-1.324-0.603-1.603-0.612
		c-0.698-0.022-1.488-0.013-2.182,0.041C71.561,29.326,71,29.395,70.497,29.536z"/>
	<path fill="#44961C" d="M89.446,39.501c-1.849-1.082-6.043-1.447-7.258,0.694c-0.703,1.237,0.15,3.346,1.479,3.894
		c1.493,0.621,3.314-0.237,4.561-1.06c0.835-0.552,1.684-1.31,1.936-2.319l0.019-0.087C90.291,40.068,89.862,39.775,89.446,39.501z"
		/>
	<path fill="#44961C" d="M66.476,50.874c-0.032,1.241,0.09,1.916,0.959,2.861c1.716,1.698,5.614,0.922,7.691,0.315
		c0.109-0.033,0.589-0.138,0.566-0.302c-0.242-0.73-1.561-2.154-2.191-2.657c-0.707-0.566-1.981-1.46-2.853-1.667
		c-0.598-0.141-1.159-0.095-1.757,0.037c-0.863,0.206-1.306,0.534-1.954,1.105C66.772,50.708,66.668,50.776,66.476,50.874z"/>
	<path fill="#44961C" d="M80.97,34.768c-0.302-1.488-1.799-4.155-3.557-4.099c-1.721,0.054-2.812,2.811-2.834,4.291
		c-0.041,2.123,1.583,2.926,3.482,2.813c1.352-0.078,2.771-0.607,2.949-2.137C81.047,35.329,81.019,35.069,80.97,34.768z"/>
	<path fill="#44961C" d="M46.02,44.316c0.977-0.93,0.882-1.912,0.297-3.026c-0.598-1.15-1.159-1.944-2.273-2.67
		c-1.643-1.063-2.798-0.201-3.446,1.442c-0.342,0.863-0.507,2.09-0.256,2.995c0.567,2.04,2.301,2.446,4.173,1.99
		C45.079,44.906,45.577,44.705,46.02,44.316z"/>
	<path fill="#44961C" d="M43.993,36.411c0.739-1.369-0.287-2.807-1.493-3.465c-1.875-1.022-5.126-0.908-5.939,1.447
		c-0.415,1.196,0.712,2.452,1.694,2.982c1.557,0.849,3.743,0.876,5.15-0.284C43.655,36.881,43.824,36.688,43.993,36.411z"/>
	<path fill="#44961C" d="M71.341,43.03c0.402-1.282-0.242-2.798-1.501-3.337c-1.068-0.456-2.104-0.296-3.118,0.22
		C65.768,40.4,65.083,41.3,64.723,42.3c-0.398,1.095,0.013,2.296,0.931,3.003c1.073,0.822,2.739,0.658,3.839-0.014
		C70.342,44.774,71,43.961,71.341,43.03z"/>
	<path fill="#44961C" d="M54.621,20.269c1.743,0.119,2.811-1.168,3.021-2.793c0.165-1.251-0.045-3.451-1.145-4.254
		c-0.813-0.589-1.918,0.004-2.571,0.557c-1.173,1-2.502,2.739-2.273,4.373C51.863,19.629,53.319,20.132,54.621,20.269z"/>
	<path fill="#44961C" d="M88.387,50.078c-0.055-1.42-0.662-2.533-1.785-3.406c-1.707-1.319-3.917-1.003-5.103,0.832
		c-0.485,0.749-0.489,1.278-0.078,2.072c0.734,1.415,2.807,2.1,4.268,2.401c1.206,0.246,2.703-0.315,2.698-1.699V50.078z"/>
	<path fill="#44961C" d="M43.595,29.052c-0.552-1.661-2.538-2.78-4.19-3.04c-1.195-0.188-2.369-0.123-2.853,1.187
		c-0.754,2.059,1.835,5.195,3.961,4.966c1.229-0.127,2.781-1.077,3.105-2.337C43.692,29.541,43.678,29.335,43.595,29.052z"/>
	<path fill="#44961C" d="M58.277,49.535c0.886-1.794-0.941-3.437-2.374-4.205c-1.146-0.598-2.986-1.081-3.844,0.229
		c-0.73,1.105-0.328,3.018,0.393,4.049c0.612,0.873,1.803,1.698,2.909,1.576c0.895-0.101,2.076-0.654,2.693-1.319
		C58.154,49.749,58.204,49.667,58.277,49.535z"/>
	<path fill="#44961C" d="M79.308,39.816c0.259-1.26-0.722-1.402-1.699-1.548c-1.036-0.15-1.899,0.033-2.899,0.297
		c-1.479,0.393-3.67,1.379-3.003,3.3c0.42,1.196,1.735,2.132,3.017,1.963C76.578,43.578,78.801,41.615,79.308,39.816z"/>
	<path fill="#44961C" d="M55.314,21.725c0,1.47,0.74,2.972,1.963,3.797c0.247,0.165,0.279,0.225,0.543,0.353
		c1.155,0.561,2.657,0.196,3.415-0.571l0.803-1.083c0.014-0.027,0.042-0.104,0.05-0.132l0.05-0.127
		c0.105-0.274,0.105,0.256,0.105-0.708c0-0.201-0.26-0.612-0.465-0.885c-0.612-0.791-1.653-1.237-2.634-1.593
		c-1.018-0.366-3.182-0.813-3.698,0.356C55.346,21.36,55.314,21.437,55.314,21.725z"/>
	<path fill="#44961C" d="M60.893,38.365c0.927,0,1.388-0.416,1.839-0.771c0.735-0.58,1.191-1.324,1.543-2.232
		c0.009-0.023,0.019-0.046,0.022-0.064l0.096-0.27c0.022-0.073,0.045-0.155,0.063-0.21l0.114-0.534
		c0.073-0.375,0.101,0.196,0.101-0.776c0-1.57-1.159-1.351-2.073-1.351c-0.493,0,0.292-0.027-0.607,0.205l-2.118,1.023
		c-0.165,0.119-0.027,0.022-0.168,0.104c-1.406,0.854-2.283,2.693-1.142,3.785C59.117,37.804,60.066,38.365,60.893,38.365z"/>
	<path fill="#44961C" d="M79.463,18.685c0.388-1.698-1.963-2.25-3.2-2.269c-1.314-0.023-3.232,0.494-3.867,1.771
		c-0.593,1.191,0.27,2.749,1.41,3.241c1.612,0.699,3.735-0.342,4.868-1.488C79.038,19.571,79.316,19.188,79.463,18.685z"/>
	<path fill="#44961C" d="M44.121,52.438c-0.53,0.589-1.005,1.383-1.379,2.086c-0.465,0.867,0.128,0.972,0.904,1.068
		c0.726,0.086,2.465,0.123,3.168-0.023c1.037-0.223,1.982-0.575,2.488-1.588c0.315-0.64,0.52-1.689-0.073-2.228
		c-0.553-0.507-1.561-0.845-2.31-0.826C45.65,50.959,44.947,51.552,44.121,52.438z"/>
	<path fill="#44961C" d="M30.079,30.626c-0.192,0.073-0.411,0.128-0.27,0.384c0.027,0.05,0.343,0.347,0.42,0.434
		c0.603,0.675,1.88,1.667,2.689,2.059c1.383,0.666,2.948,0.606,4.104-0.485c0.237-0.223,0.603-0.615,0.575-0.967
		c-0.059-0.808-0.483-1.584-1.187-2.009c-1.725-1.04-4.141-0.205-5.875,0.421C30.384,30.518,30.234,30.572,30.079,30.626z"/>
	<path fill="#44961C" d="M76.002,49.969c1.356,0,2.881-1.101,3.748-2.1c1.209-1.634,0.548-2.169-1.247-2.41
		c-1.465-0.197-4.692,0.3-4.756,2.191l-0.005,0.095c0.032,0.283,0.12,0.562,0.238,0.817c0.082,0.164,0.174,0.302,0.273,0.452
		C74.637,49.566,75.332,49.969,76.002,49.969z"/>
	<path fill="#44961C" d="M37.049,25.774c1.009,0.278,2.031-0.196,2.689-0.954c0.794-0.908,0.936-2.478,0.051-3.383
		c-0.918-0.935-2.36-0.949-3.36-0.123c-1.159,0.959-1.588,2.546-0.503,3.743C36.241,25.404,36.611,25.624,37.049,25.774z"/>
	<path fill="#44961C" d="M93.473,43.655c-0.926-1.045-2.356-1.611-3.744-1.291c-0.83,0.191-1.743,0.798-1.794,1.733
		c-0.063,1.343,1.114,2.137,2.27,2.442c1.178,0.315,2.798,0.114,3.456-1.036c0.241-0.429,0.273-1.214-0.014-1.621l-0.055-0.077
		L93.473,43.655z"/>
	<path fill="#44961C" d="M78.5,22.771c0.475,1.347,3.018,1.689,3.999,0.821c1.132-0.995,0.593-3.409-0.379-4.305
		c-0.251-0.219-0.79-0.534-1.15-0.419C79.555,19.329,78.006,21.232,78.5,22.771z"/>
	<path fill="#44961C" d="M87.164,29.974c1.009,0.21,1.821,0.151,2.547-0.634c0.548-0.598,2.005-2.251,1.981-3.049
		c-0.019-0.671-0.973-0.584-1.447-0.576c-1.11,0.022-3.041,0.237-3.849,1.055c-0.539,0.539-0.753,1.497-0.58,2.223
		C85.982,29.677,86.552,29.837,87.164,29.974z"/>
	<path fill="#44961C" d="M47.759,49.069c0.858,0.028,1.644-0.15,2.132-0.926c0.265-0.425,0.265-0.913,0.169-1.393
		c-0.178-0.895-0.781-1.583-1.575-2.008c-0.844-0.457-2.137-0.375-2.821,0.338c-1.091,1.132-0.392,2.647,0.689,3.478
		C46.795,48.9,47.202,49.042,47.759,49.069z"/>
	<path fill="#44961C" d="M48.612,29.805c0.233-0.996-0.009-2.037-0.393-2.963c-0.123-0.296-0.347-0.844-0.753-0.708
		c-0.644,0.215-2.009,1.42-2.437,1.992c-0.558,0.734-0.722,1.406-0.266,2.259c0.653,1.219,2.077,1.333,3.119,0.53
		C48.266,30.618,48.489,30.275,48.612,29.805z"/>
	<path fill="#44961C" d="M88.693,53.917c-0.512-1.552-1.835-2.054-3.269-1.306c-1.917,1.004-0.936,2.589,0.494,3.429
		c0.46,0.269,1.219,0.703,1.753,0.689c1.401-0.051,1.333-1.758,1.05-2.721L88.693,53.917z"/>
	<path fill="#44961C" d="M89.697,36.89c-0.648,0.516-0.68,1.219-0.315,1.922c0.626,1.215,2.261,0.908,3.26,0.388
		c0.616-0.324,1.593-0.977,1.813-1.689c0.196-0.648-0.726-0.913-1.188-1.046C92.126,36.141,90.692,36.201,89.697,36.89z"/>
	<path fill="#44961C" d="M66.539,12.239c-0.497,0.406-1.05,1.401-1.223,2.022c-0.365,1.26,0.123,2.301,1.452,2.62
		c1.547,0.365,2.57-1.108,1.875-2.57c-0.283-0.589-1.104-1.534-1.62-1.931C66.905,12.284,66.695,12.166,66.539,12.239z"/>
	<path fill="#44961C" d="M43.468,17.708c-0.717-1.452-2.264-2.06-3.223-0.416c-1.063,1.821,0.42,3.579,2.333,2.962
		C43.778,19.863,43.934,18.744,43.468,17.708z"/>
	<path fill="#44961C" d="M34.571,25.683c-1.273-0.539-2.625-0.383-2.374,1.333c0.1,0.676,0.753,1.794,1.406,2.063
		c1.237,0.502,3.406-0.484,2.538-2.164C35.831,26.308,35.164,25.961,34.571,25.683z"/>
	<path fill="#44961C" d="M28.444,34.941c-2.045,0.689-1.091,3.766,1.173,3.675c2.177-0.087,2.101-3.072-0.201-3.675
		C29.065,34.849,28.791,34.849,28.444,34.941z"/>
	<path fill="#44961C" d="M90.041,47.96c-0.348-0.104-0.562,0.064-0.832,0.292c-0.94,0.854-0.703,1.752,0.173,2.538
		c0.429,0.383,1.196,0.881,1.704,1.177c0.255,0.146,0.342-0.063,0.457-0.296c0.506-1.068,0.726-2.926-0.644-3.465
		C90.629,48.101,90.318,48.038,90.041,47.96z"/>
	<path fill="#44961C" d="M73.752,15.626c0.169-1.232-0.611-1.895-1.78-1.397c-0.895,0.379-2.447,1.507-1.516,2.593
		c0.676,0.786,1.79,1.063,2.579,0.292C73.437,16.718,73.657,16.174,73.752,15.626z"/>
	<path fill="#44961C" d="M59.272,39.803c0,0.917,1.114,1.639,1.913,1.872c0.543,0.164-0.051,0.019,0.429,0.019
		c0.26,0,0.337,0.173,0.603-0.201l0.168-0.375c0.132-0.352,0.127,0.183,0.127-0.954c0-0.402,0.009,0.037-0.104-0.256
		c-0.37-0.972-0.534-1.273-1.606-1.273C60.117,38.634,59.272,39.131,59.272,39.803z"/>
	<path fill="#44961C" d="M66.22,47.673c0.539-0.489,0.507-1.658-0.433-1.854c-1.283-0.229-1.922,0.525-2.233,1.68
		c-0.082,0.32-0.228,1.159,0.301,1.154c0.48-0.004,1.508-0.396,1.941-0.666C65.956,47.892,66.078,47.796,66.22,47.673z"/>
	<path fill="#44961C" d="M59.848,13.887c0.205-0.652-0.932-2.25-1.767-1.981c-0.625,0.201-1.063,1.155-0.936,1.776
		C57.441,15.125,59.436,14.997,59.848,13.887z"/>
	<path fill="#44961C" d="M51.552,42.304c-1.054,0.087-3.323,1.611-1.374,2.237c0.36,0.119,1.196,0.137,1.557,0.037
		c0.972-0.275,1.287-1.042,0.621-1.845C52.142,42.473,51.895,42.304,51.552,42.304z"/>
	<path fill="#44961C" d="M53.11,44.039c0.712,1.474,4.021-0.283,2.373-0.972c-0.68-0.288-2.041-0.38-2.369,0.483
		C53.045,43.729,53.055,43.856,53.11,44.039z"/>
	<path fill="#44961C" d="M34.808,48.439l0.027-0.027C34.835,48.412,34.798,48.43,34.808,48.439z"/>
	<path fill="#F67104" d="M20.597,50.868v-3.419h-4.766v7.195c0,0.305-1.675,1.484-1.917,1.68l-9.468,7.624
		c-0.192,0.151-0.324,0.255-0.502,0.397C3.292,64.878,0.188,67.316,0,67.599l2.607,2.698c0.319-0.086,0.726-0.502,1.004-0.708
		c0.648-0.484,2.355-1.99,2.867-2.265v32.023h2.967V65.079c0-0.352,3.383-2.926,3.88-3.318l11.463-9.222
		c0.219-0.173,0.278-0.274,0.488-0.411c0.411,0.11,6.4,5.113,7.053,5.624l7.135,5.729c0.461,0.416,0.927,0.721,1.393,1.127
		c1.419,1.242,4.026,3.242,5.674,4.58c0.26,0.21,1.278,1.05,1.501,1.109c0.109-0.077,2.511-2.556,2.607-2.698
		c-0.219-0.329-9.331-7.592-10.961-8.92c-0.539-0.438-1.091-0.808-1.606-1.269c-0.256-0.224-0.498-0.411-0.744-0.606l-7.13-5.735
		c-0.266-0.237-0.525-0.415-0.799-0.638l-1.593-1.283c-0.296-0.22-0.493-0.406-0.794-0.647c-1.972-1.589-1.438-1.562-2.936-0.361
		C23.707,48.439,20.903,50.786,20.597,50.868z"/>
</g>
</svg>
